<?xml version="1.0" encoding="iso-8859-1"?>
<!-- Generator: Adobe Illustrator 19.0.0, SVG Export Plug-In . SVG Version: 6.00 Build 0)  -->
<svg version="1.1" id="Capa_1" xmlns="http://www.w3.org/2000/svg" xmlns:xlink="http://www.w3.org/1999/xlink" x="0px" y="0px"
	 viewBox="0 0 512.015 512.015" style="enable-background:new 0 0 512.015 512.015;" xml:space="preserve">
<path style="fill:#2196F3;" d="M511.208,474.908l-64-192c-2.2-6.5-8.3-10.9-15.2-10.9h-29.4c-41,82.7-110.9,144.5-115.1,148.2
	c-8.6,7.6-19.9,11.8-31.6,11.8s-22.9-4.3-31.7-12c-4.1-3.5-74-65.4-114.9-148h-29.3c-6.9,0-13,4.4-15.2,10.9l-64,192
	c-1.6,4.9-0.8,10.2,2.2,14.4c3,4.2,7.8,6.7,13,6.7h480c5.2,0,10-2.5,13-6.7C512.008,485.208,512.808,479.808,511.208,474.908z"/>
<path style="fill:#FFC107;" d="M256.008,16.008c-79.4,0-144,64.6-144,144c0,117.9,128,231.3,133.5,236c3,2.7,6.8,4,10.5,4
	c3.7,0,7.5-1.3,10.5-4c5.5-4.7,133.5-118.1,133.5-236C400.008,80.608,335.408,16.008,256.008,16.008z"/>
<circle style="fill:#FAFAFA;" cx="256.008" cy="160.008" r="64"/>
<g>
</g>
<g>
</g>
<g>
</g>
<g>
</g>
<g>
</g>
<g>
</g>
<g>
</g>
<g>
</g>
<g>
</g>
<g>
</g>
<g>
</g>
<g>
</g>
<g>
</g>
<g>
</g>
<g>
</g>
</svg>
