<?xml version="1.0" encoding="iso-8859-1"?>
<!-- Generator: Adobe Illustrator 19.0.0, SVG Export Plug-In . SVG Version: 6.00 Build 0)  -->
<svg version="1.1" id="Capa_1" xmlns="http://www.w3.org/2000/svg" xmlns:xlink="http://www.w3.org/1999/xlink" x="0px" y="0px"
	 viewBox="0 0 512 512" style="enable-background:new 0 0 512 512;" xml:space="preserve">
<circle style="fill:#FFC107;" cx="256" cy="48" r="48"/>
<path style="fill:#2196F3;" d="M326.7,357.6l-5.5,45.4c-2.3,25.2-22.9,45-47.7,45h-35c-24.8,0-45.3-19.8-47.8-46l-5.4-44.4
	C114.3,369.3,64,398.2,64,432c0,44.2,86,80,192,80s192-35.8,192-80C448,398.2,397.8,369.3,326.7,357.6z"/>
<path style="fill:#FFC107;" d="M324.3,154c-1.5-14.8-13.8-26-28.7-26h-79.2c-14.8,0-27.2,11.2-28.7,26l-11.6,116.4
	c-0.4,4.5,1.1,9,4.1,12.3c3,3.4,7.4,5.3,11.9,5.3h16l14.6,113.6c0.8,8.2,7.7,14.4,15.9,14.4h35c8.2,0,15.1-6.2,15.9-14.4L304,288h16
	c4.5,0,8.8-1.9,11.9-5.3c3-3.3,4.5-7.8,4.1-12.3L324.3,154z"/>
<g>
</g>
<g>
</g>
<g>
</g>
<g>
</g>
<g>
</g>
<g>
</g>
<g>
</g>
<g>
</g>
<g>
</g>
<g>
</g>
<g>
</g>
<g>
</g>
<g>
</g>
<g>
</g>
<g>
</g>
</svg>
